<svg xmlns="http://www.w3.org/2000/svg" viewBox="0 0 1200 900" width="1200" height="900" font-family="Inter, 'Segoe UI', system-ui, -apple-system, sans-serif">
  <defs>
    <style>
      text { font-family: Inter, 'Segoe UI', system-ui, -apple-system, sans-serif; }
    </style>
  </defs>

  <!-- ==================== BACKGROUND ==================== -->
  <rect width="1200" height="900" fill="#100f0d"/>

  <!-- ==================== LEFT SIDEBAR ==================== -->
  <rect x="0" y="0" width="220" height="900" fill="#131210"/>

  <!-- Logo -->
  <rect x="24" y="24" width="14" height="14" rx="3" fill="#e65c2c"/>
  <text x="46" y="36" fill="#f6f5f3" font-size="18" font-weight="500">ZenDash</text>

  <!-- Nav Items -->
  <!-- Active: Overview -->
  <rect x="0" y="72" width="220" height="40" fill="#232320"/>
  <rect x="0" y="72" width="3" height="40" fill="#fda16b"/>
  <text x="40" y="97" fill="#fda16b" font-size="14" font-weight="400">Overview</text>

  <!-- Costs -->
  <text x="40" y="137" fill="#9f9e9c" font-size="14" font-weight="400">Costs</text>

  <!-- Teams -->
  <text x="40" y="177" fill="#9f9e9c" font-size="14" font-weight="400">Teams</text>

  <!-- Settings -->
  <text x="40" y="217" fill="#9f9e9c" font-size="14" font-weight="400">Settings</text>

  <!-- Sidebar bottom org -->
  <text x="24" y="876" fill="#9f9e9c" font-size="11" font-weight="400">Acme Corp</text>

  <!-- ==================== TOP FILTER BAR ==================== -->
  <rect x="220" y="0" width="980" height="56" fill="#151513"/>
  <line x1="220" y1="56" x2="1200" y2="56" stroke="rgba(246,245,243,0.09)" stroke-width="1"/>

  <!-- Time range pill buttons -->
  <rect x="240" y="14" width="54" height="28" rx="12" fill="none"/>
  <text x="252" y="33" fill="#9f9e9c" font-size="12" font-weight="400">Today</text>

  <rect x="300" y="14" width="36" height="28" rx="12" fill="none"/>
  <text x="310" y="33" fill="#9f9e9c" font-size="12" font-weight="400">7d</text>

  <rect x="342" y="14" width="38" height="28" rx="12" fill="#232320"/>
  <text x="352" y="33" fill="#f6f5f3" font-size="12" font-weight="500">30d</text>

  <rect x="386" y="14" width="38" height="28" rx="12" fill="none"/>
  <text x="396" y="33" fill="#9f9e9c" font-size="12" font-weight="400">90d</text>

  <rect x="430" y="14" width="60" height="28" rx="12" fill="none"/>
  <text x="438" y="33" fill="#9f9e9c" font-size="12" font-weight="400">Custom</text>

  <!-- Vertical separator -->
  <line x1="506" y1="16" x2="506" y2="40" stroke="rgba(246,245,243,0.09)" stroke-width="1"/>

  <!-- Dropdowns -->
  <text x="522" y="33" fill="#9f9e9c" font-size="12" font-weight="400">Team: All</text>
  <polygon points="582,30 588,30 585,34" fill="#9f9e9c"/>

  <text x="606" y="33" fill="#9f9e9c" font-size="12" font-weight="400">User: All</text>
  <polygon points="662,30 668,30 665,34" fill="#9f9e9c"/>

  <text x="686" y="33" fill="#9f9e9c" font-size="12" font-weight="400">Model: All</text>
  <polygon points="752,30 758,30 755,34" fill="#9f9e9c"/>

  <!-- Go Live button -->
  <rect x="976" y="14" width="96" height="28" rx="12" fill="#c34513"/>
  <!-- Pulsing dot indicator -->
  <circle cx="996" cy="28" r="4" fill="#f6f5f3"/>
  <circle cx="996" cy="28" r="4" fill="#f6f5f3" opacity="0.4">
    <animate attributeName="r" values="4;7;4" dur="1.5s" repeatCount="indefinite"/>
    <animate attributeName="opacity" values="0.4;0;0.4" dur="1.5s" repeatCount="indefinite"/>
  </circle>
  <text x="1006" y="33" fill="#f6f5f2" font-size="12" font-weight="500">Go Live</text>

  <!-- Export CSV button (shifted right) -->
  <rect x="1092" y="14" width="88" height="28" rx="12" fill="none" stroke="rgba(246,245,243,0.09)" stroke-width="1"/>
  <text x="1107" y="33" fill="#9f9e9c" font-size="12" font-weight="400">Export CSV</text>

  <!-- ==================== ROW 1: KPI CARDS ==================== -->
  <!-- 5 cards across, x starts at 236 (220 sidebar + 16 padding), each card ~178px, 16px gap -->
  <!-- Total width: 980 - 32 padding = 948, (948 - 64 gaps) / 5 = 176.8 ~ 177px each -->

  <!-- Card 1: Total Sessions -->
  <rect x="236" y="76" width="177" height="96" rx="12" fill="#151513" stroke="rgba(246,245,243,0.09)" stroke-width="1"/>
  <text x="260" y="100" fill="#9f9e9c" font-size="11" font-weight="500" letter-spacing="0.8">TOTAL SESSIONS</text>
  <text x="260" y="132" fill="#f6f5f3" font-size="26" font-weight="500">12,847</text>
  <text x="260" y="154" fill="#218b30" font-size="12" font-weight="400">+12%</text>

  <!-- Card 2: Total Cost -->
  <rect x="429" y="76" width="177" height="96" rx="12" fill="#151513" stroke="rgba(246,245,243,0.09)" stroke-width="1"/>
  <text x="453" y="100" fill="#9f9e9c" font-size="11" font-weight="500" letter-spacing="0.8">TOTAL COST</text>
  <text x="453" y="132" fill="#f6f5f3" font-size="26" font-weight="500">$4,231</text>
  <text x="453" y="154" fill="#ffb900" font-size="12" font-weight="400">+8%</text>

  <!-- Card 3: Active Users -->
  <rect x="622" y="76" width="177" height="96" rx="12" fill="#151513" stroke="rgba(246,245,243,0.09)" stroke-width="1"/>
  <text x="646" y="100" fill="#9f9e9c" font-size="11" font-weight="500" letter-spacing="0.8">ACTIVE USERS</text>
  <text x="646" y="132" fill="#f6f5f3" font-size="26" font-weight="500">142/200</text>
  <text x="646" y="154" fill="#9f9e9c" font-size="12" font-weight="400">71% adoption</text>

  <!-- Card 4: Completion Rate -->
  <rect x="815" y="76" width="177" height="96" rx="12" fill="#151513" stroke="rgba(246,245,243,0.09)" stroke-width="1"/>
  <text x="839" y="100" fill="#9f9e9c" font-size="11" font-weight="500" letter-spacing="0.8">COMPLETION RATE</text>
  <text x="839" y="132" fill="#218b30" font-size="26" font-weight="500">87.3%</text>

  <!-- Card 5: Cost/Session -->
  <rect x="1008" y="76" width="177" height="96" rx="12" fill="#151513" stroke="rgba(246,245,243,0.09)" stroke-width="1"/>
  <text x="1032" y="100" fill="#9f9e9c" font-size="11" font-weight="500" letter-spacing="0.8">COST / SESSION</text>
  <text x="1032" y="132" fill="#f6f5f3" font-size="26" font-weight="500">$0.33</text>
  <text x="1032" y="154" fill="#218b30" font-size="12" font-weight="400">&#x2193; -5%</text>

  <!-- ==================== ROW 2: CHARTS ==================== -->
  <!-- Two charts side by side, 20px gap between rows, 16px gap between cards -->
  <!-- Left chart: x=236, width=474; Right chart: x=726, width=459 -->

  <!-- Left Chart: Sessions Over Time -->
  <rect x="236" y="192" width="474" height="260" rx="12" fill="#151513" stroke="rgba(246,245,243,0.09)" stroke-width="1"/>
  <text x="260" y="220" fill="#e5e4e2" font-size="14" font-weight="500">Sessions Over Time</text>

  <!-- Legend -->
  <rect x="564" y="210" width="8" height="8" rx="2" fill="#218b30"/>
  <text x="576" y="218" fill="#9f9e9c" font-size="9">Completed</text>
  <rect x="626" y="210" width="8" height="8" rx="2" fill="#d1003e"/>
  <text x="638" y="218" fill="#9f9e9c" font-size="9">Error</text>
  <rect x="668" y="210" width="8" height="8" rx="2" fill="#9f9e9c"/>
  <text x="680" y="218" fill="#9f9e9c" font-size="9">Cancelled</text>

  <!-- Y-axis labels -->
  <text x="260" y="244" fill="#9f9e9c" font-size="9">500</text>
  <text x="260" y="282" fill="#9f9e9c" font-size="9">375</text>
  <text x="260" y="320" fill="#9f9e9c" font-size="9">250</text>
  <text x="260" y="358" fill="#9f9e9c" font-size="9">125</text>
  <text x="265" y="396" fill="#9f9e9c" font-size="9">0</text>

  <!-- Grid lines -->
  <line x1="288" y1="240" x2="694" y2="240" stroke="rgba(246,245,243,0.05)" stroke-width="1"/>
  <line x1="288" y1="278" x2="694" y2="278" stroke="rgba(246,245,243,0.05)" stroke-width="1"/>
  <line x1="288" y1="316" x2="694" y2="316" stroke="rgba(246,245,243,0.05)" stroke-width="1"/>
  <line x1="288" y1="354" x2="694" y2="354" stroke="rgba(246,245,243,0.05)" stroke-width="1"/>
  <line x1="288" y1="392" x2="694" y2="392" stroke="rgba(246,245,243,0.05)" stroke-width="1"/>

  <!-- Stacked bars: 30 bars from x=292 to x=688, each 11px wide, ~2.5px gap -->
  <g>
    <!-- Bar 1 --><rect x="292" y="300" width="11" height="92" fill="#218b30"/><rect x="292" y="292" width="11" height="8" fill="#9f9e9c"/><rect x="292" y="282" width="11" height="10" fill="#d1003e"/>
    <!-- Bar 2 --><rect x="306" y="276" width="11" height="116" fill="#218b30"/><rect x="306" y="266" width="11" height="10" fill="#9f9e9c"/><rect x="306" y="256" width="11" height="10" fill="#d1003e"/>
    <!-- Bar 3 --><rect x="320" y="310" width="11" height="82" fill="#218b30"/><rect x="320" y="302" width="11" height="8" fill="#9f9e9c"/><rect x="320" y="296" width="11" height="6" fill="#d1003e"/>
    <!-- Bar 4 --><rect x="333" y="286" width="11" height="106" fill="#218b30"/><rect x="333" y="276" width="11" height="10" fill="#9f9e9c"/><rect x="333" y="268" width="11" height="8" fill="#d1003e"/>
    <!-- Bar 5 --><rect x="347" y="264" width="11" height="128" fill="#218b30"/><rect x="347" y="254" width="11" height="10" fill="#9f9e9c"/><rect x="347" y="244" width="11" height="10" fill="#d1003e"/>
    <!-- Bar 6 --><rect x="361" y="280" width="11" height="112" fill="#218b30"/><rect x="361" y="270" width="11" height="10" fill="#9f9e9c"/><rect x="361" y="262" width="11" height="8" fill="#d1003e"/>
    <!-- Bar 7 --><rect x="374" y="316" width="11" height="76" fill="#218b30"/><rect x="374" y="308" width="11" height="8" fill="#9f9e9c"/><rect x="374" y="302" width="11" height="6" fill="#d1003e"/>
    <!-- Bar 8 --><rect x="388" y="324" width="11" height="68" fill="#218b30"/><rect x="388" y="318" width="11" height="6" fill="#9f9e9c"/><rect x="388" y="314" width="11" height="4" fill="#d1003e"/>
    <!-- Bar 9 --><rect x="402" y="290" width="11" height="102" fill="#218b30"/><rect x="402" y="280" width="11" height="10" fill="#9f9e9c"/><rect x="402" y="272" width="11" height="8" fill="#d1003e"/>
    <!-- Bar 10 --><rect x="415" y="272" width="11" height="120" fill="#218b30"/><rect x="415" y="262" width="11" height="10" fill="#9f9e9c"/><rect x="415" y="254" width="11" height="8" fill="#d1003e"/>
    <!-- Bar 11 --><rect x="429" y="254" width="11" height="138" fill="#218b30"/><rect x="429" y="244" width="11" height="10" fill="#9f9e9c"/><rect x="429" y="236" width="11" height="8" fill="#d1003e"/>
    <!-- Bar 12 --><rect x="443" y="268" width="11" height="124" fill="#218b30"/><rect x="443" y="258" width="11" height="10" fill="#9f9e9c"/><rect x="443" y="250" width="11" height="8" fill="#d1003e"/>
    <!-- Bar 13 --><rect x="456" y="282" width="11" height="110" fill="#218b30"/><rect x="456" y="274" width="11" height="8" fill="#9f9e9c"/><rect x="456" y="266" width="11" height="8" fill="#d1003e"/>
    <!-- Bar 14 --><rect x="470" y="298" width="11" height="94" fill="#218b30"/><rect x="470" y="290" width="11" height="8" fill="#9f9e9c"/><rect x="470" y="284" width="11" height="6" fill="#d1003e"/>
    <!-- Bar 15 --><rect x="484" y="274" width="11" height="118" fill="#218b30"/><rect x="484" y="264" width="11" height="10" fill="#9f9e9c"/><rect x="484" y="256" width="11" height="8" fill="#d1003e"/>
    <!-- Bar 16 --><rect x="497" y="260" width="11" height="132" fill="#218b30"/><rect x="497" y="250" width="11" height="10" fill="#9f9e9c"/><rect x="497" y="242" width="11" height="8" fill="#d1003e"/>
    <!-- Bar 17 --><rect x="511" y="248" width="11" height="144" fill="#218b30"/><rect x="511" y="238" width="11" height="10" fill="#9f9e9c"/><rect x="511" y="230" width="11" height="8" fill="#d1003e"/>
    <!-- Bar 18 --><rect x="525" y="266" width="11" height="126" fill="#218b30"/><rect x="525" y="256" width="11" height="10" fill="#9f9e9c"/><rect x="525" y="248" width="11" height="8" fill="#d1003e"/>
    <!-- Bar 19 --><rect x="538" y="256" width="11" height="136" fill="#218b30"/><rect x="538" y="246" width="11" height="10" fill="#9f9e9c"/><rect x="538" y="238" width="11" height="8" fill="#d1003e"/>
    <!-- Bar 20 --><rect x="552" y="270" width="11" height="122" fill="#218b30"/><rect x="552" y="260" width="11" height="10" fill="#9f9e9c"/><rect x="552" y="252" width="11" height="8" fill="#d1003e"/>
    <!-- Bar 21 --><rect x="566" y="258" width="11" height="134" fill="#218b30"/><rect x="566" y="248" width="11" height="10" fill="#9f9e9c"/><rect x="566" y="240" width="11" height="8" fill="#d1003e"/>
    <!-- Bar 22 --><rect x="579" y="274" width="11" height="118" fill="#218b30"/><rect x="579" y="266" width="11" height="8" fill="#9f9e9c"/><rect x="579" y="258" width="11" height="8" fill="#d1003e"/>
    <!-- Bar 23 --><rect x="593" y="252" width="11" height="140" fill="#218b30"/><rect x="593" y="242" width="11" height="10" fill="#9f9e9c"/><rect x="593" y="234" width="11" height="8" fill="#d1003e"/>
    <!-- Bar 24 --><rect x="607" y="244" width="11" height="148" fill="#218b30"/><rect x="607" y="234" width="11" height="10" fill="#9f9e9c"/><rect x="607" y="226" width="11" height="8" fill="#d1003e"/>
    <!-- Bar 25 --><rect x="620" y="256" width="11" height="136" fill="#218b30"/><rect x="620" y="246" width="11" height="10" fill="#9f9e9c"/><rect x="620" y="238" width="11" height="8" fill="#d1003e"/>
    <!-- Bar 26 --><rect x="634" y="264" width="11" height="128" fill="#218b30"/><rect x="634" y="254" width="11" height="10" fill="#9f9e9c"/><rect x="634" y="246" width="11" height="8" fill="#d1003e"/>
    <!-- Bar 27 --><rect x="648" y="250" width="11" height="142" fill="#218b30"/><rect x="648" y="240" width="11" height="10" fill="#9f9e9c"/><rect x="648" y="232" width="11" height="8" fill="#d1003e"/>
    <!-- Bar 28 --><rect x="661" y="258" width="11" height="134" fill="#218b30"/><rect x="661" y="250" width="11" height="8" fill="#9f9e9c"/><rect x="661" y="242" width="11" height="8" fill="#d1003e"/>
    <!-- Bar 29 --><rect x="675" y="246" width="11" height="146" fill="#218b30"/><rect x="675" y="236" width="11" height="10" fill="#9f9e9c"/><rect x="675" y="228" width="11" height="8" fill="#d1003e"/>
    <!-- Bar 30 --><rect x="689" y="262" width="11" height="130" fill="#218b30"/><rect x="689" y="252" width="11" height="10" fill="#9f9e9c"/><rect x="689" y="244" width="11" height="8" fill="#d1003e"/>
  </g>

  <!-- X-axis labels -->
  <text x="292" y="410" fill="#9f9e9c" font-size="9">1</text>
  <text x="388" y="410" fill="#9f9e9c" font-size="9">8</text>
  <text x="484" y="410" fill="#9f9e9c" font-size="9">15</text>
  <text x="579" y="410" fill="#9f9e9c" font-size="9">22</text>
  <text x="675" y="410" fill="#9f9e9c" font-size="9">30</text>

  <!-- Right Chart: Cost Over Time -->
  <rect x="726" y="192" width="459" height="260" rx="12" fill="#151513" stroke="rgba(246,245,243,0.09)" stroke-width="1"/>
  <text x="750" y="220" fill="#e5e4e2" font-size="14" font-weight="500">Cost Over Time</text>

  <!-- Legend -->
  <line x1="1060" y1="216" x2="1076" y2="216" stroke="#c34513" stroke-width="2"/>
  <text x="1080" y="220" fill="#9f9e9c" font-size="9">Actual</text>
  <line x1="1116" y1="216" x2="1132" y2="216" stroke="#d1003e" stroke-width="1.5" stroke-dasharray="4,3"/>
  <text x="1136" y="220" fill="#9f9e9c" font-size="9">Budget</text>

  <!-- Y-axis labels -->
  <text x="750" y="244" fill="#9f9e9c" font-size="9">$200</text>
  <text x="750" y="282" fill="#9f9e9c" font-size="9">$150</text>
  <text x="750" y="320" fill="#9f9e9c" font-size="9">$100</text>
  <text x="755" y="358" fill="#9f9e9c" font-size="9">$50</text>
  <text x="760" y="396" fill="#9f9e9c" font-size="9">$0</text>

  <!-- Grid lines -->
  <line x1="784" y1="240" x2="1168" y2="240" stroke="rgba(246,245,243,0.05)" stroke-width="1"/>
  <line x1="784" y1="278" x2="1168" y2="278" stroke="rgba(246,245,243,0.05)" stroke-width="1"/>
  <line x1="784" y1="316" x2="1168" y2="316" stroke="rgba(246,245,243,0.05)" stroke-width="1"/>
  <line x1="784" y1="354" x2="1168" y2="354" stroke="rgba(246,245,243,0.05)" stroke-width="1"/>
  <line x1="784" y1="392" x2="1168" y2="392" stroke="rgba(246,245,243,0.05)" stroke-width="1"/>

  <!-- Cost line -->
  <polyline points="794,378 814,370 834,366 854,358 874,352 894,348 914,356 934,344 954,338 974,332 994,326 1014,318 1034,312 1054,304 1074,298 1094,292 1114,286 1134,278 1148,272 1160,264" fill="none" stroke="#c34513" stroke-width="2.5" stroke-linecap="round" stroke-linejoin="round"/>

  <!-- Area fill under line -->
  <polygon points="794,378 814,370 834,366 854,358 874,352 894,348 914,356 934,344 954,338 974,332 994,326 1014,318 1034,312 1054,304 1074,298 1094,292 1114,286 1134,278 1148,272 1160,264 1160,392 794,392" fill="rgba(195,69,19,0.15)"/>

  <!-- Budget line (dotted) -->
  <line x1="784" y1="292" x2="1168" y2="292" stroke="#d1003e" stroke-width="1.5" stroke-dasharray="6,4"/>
  <text x="1100" y="288" fill="#d1003e" font-size="9" font-weight="500">Budget</text>

  <!-- X-axis labels -->
  <text x="794" y="410" fill="#9f9e9c" font-size="9">1</text>
  <text x="894" y="410" fill="#9f9e9c" font-size="9">8</text>
  <text x="994" y="410" fill="#9f9e9c" font-size="9">15</text>
  <text x="1094" y="410" fill="#9f9e9c" font-size="9">22</text>
  <text x="1160" y="410" fill="#9f9e9c" font-size="9">30</text>

  <!-- ==================== ROW 3: PANELS ==================== -->

  <!-- Left Panel: Insights -->
  <rect x="236" y="472" width="474" height="280" rx="12" fill="#151513" stroke="rgba(246,245,243,0.09)" stroke-width="1"/>
  <text x="260" y="500" fill="#e5e4e2" font-size="14" font-weight="500">Insights</text>

  <!-- Insight 1: Orange border -->
  <rect x="260" y="516" width="4" height="64" rx="2" fill="#c34513"/>
  <rect x="264" y="516" width="422" height="64" rx="0" fill="none"/>
  <text x="280" y="536" fill="#f6f5f3" font-size="12" font-weight="500">Backend spent $1,204 -- 42% above avg</text>
  <text x="280" y="554" fill="#9f9e9c" font-size="11" font-weight="400">Team "backend-api" has the highest cost this period</text>
  <text x="280" y="572" fill="#fda16b" font-size="11" font-weight="400">View &#x2192;</text>

  <!-- Insight 2: Red border -->
  <rect x="260" y="592" width="4" height="64" rx="2" fill="#d1003e"/>
  <rect x="264" y="592" width="422" height="64" rx="0" fill="none"/>
  <text x="280" y="612" fill="#f6f5f3" font-size="12" font-weight="500">Frontend cache hit rate: 23% vs 61% avg</text>
  <text x="280" y="630" fill="#9f9e9c" font-size="11" font-weight="400">Low cache utilization may be increasing costs</text>
  <text x="280" y="648" fill="#fda16b" font-size="11" font-weight="400">View &#x2192;</text>

  <!-- Insight 3: Amber border -->
  <rect x="260" y="668" width="4" height="64" rx="2" fill="#ffb900"/>
  <rect x="264" y="668" width="422" height="64" rx="0" fill="none"/>
  <text x="280" y="688" fill="#f6f5f3" font-size="12" font-weight="500">Session #8a3f cost $12.40 -- 37x avg</text>
  <text x="280" y="706" fill="#9f9e9c" font-size="11" font-weight="400">Anomalous session detected; review recommended</text>
  <text x="280" y="724" fill="#fda16b" font-size="11" font-weight="400">View &#x2192;</text>

  <!-- Right Panel: Team Leaderboard -->
  <rect x="726" y="472" width="459" height="280" rx="12" fill="#151513" stroke="rgba(246,245,243,0.09)" stroke-width="1"/>
  <text x="750" y="500" fill="#e5e4e2" font-size="14" font-weight="500">Team Leaderboard</text>

  <!-- Table Header -->
  <text x="750" y="528" fill="#9f9e9c" font-size="11" font-weight="500" letter-spacing="0.6">TEAM</text>
  <text x="880" y="528" fill="#9f9e9c" font-size="11" font-weight="500" letter-spacing="0.6">SESSIONS</text>
  <text x="960" y="528" fill="#9f9e9c" font-size="11" font-weight="500" letter-spacing="0.6">COST</text>
  <text x="1040" y="528" fill="#9f9e9c" font-size="11" font-weight="500" letter-spacing="0.6">RATE</text>
  <text x="1110" y="528" fill="#9f9e9c" font-size="11" font-weight="500" letter-spacing="0.6">COST/SESS</text>

  <line x1="750" y1="536" x2="1168" y2="536" stroke="rgba(246,245,243,0.09)" stroke-width="1"/>

  <!-- Row 1 -->
  <rect x="740" y="540" width="435" height="32" fill="transparent"/>
  <text x="750" y="562" fill="#f6f5f3" font-size="12" font-weight="400">Backend API</text>
  <text x="880" y="562" fill="#f6f5f3" font-size="12" font-weight="400">4,231</text>
  <text x="960" y="562" fill="#f6f5f3" font-size="12" font-weight="400">$1,204</text>
  <text x="1040" y="562" fill="#218b30" font-size="12" font-weight="400">91.2%</text>
  <text x="1110" y="562" fill="#f6f5f3" font-size="12" font-weight="400">$0.28</text>

  <!-- Row 2 (alternating bg) -->
  <rect x="740" y="572" width="435" height="32" fill="rgba(246,245,243,0.03)"/>
  <text x="750" y="594" fill="#f6f5f3" font-size="12" font-weight="400">Frontend</text>
  <text x="880" y="594" fill="#f6f5f3" font-size="12" font-weight="400">3,847</text>
  <text x="960" y="594" fill="#f6f5f3" font-size="12" font-weight="400">$1,108</text>
  <text x="1040" y="594" fill="#ffb900" font-size="12" font-weight="400">82.4%</text>
  <text x="1110" y="594" fill="#f6f5f3" font-size="12" font-weight="400">$0.29</text>

  <!-- Row 3 -->
  <rect x="740" y="604" width="435" height="32" fill="transparent"/>
  <text x="750" y="626" fill="#f6f5f3" font-size="12" font-weight="400">Data Science</text>
  <text x="880" y="626" fill="#f6f5f3" font-size="12" font-weight="400">2,563</text>
  <text x="960" y="626" fill="#f6f5f3" font-size="12" font-weight="400">$982</text>
  <text x="1040" y="626" fill="#218b30" font-size="12" font-weight="400">89.7%</text>
  <text x="1110" y="626" fill="#f6f5f3" font-size="12" font-weight="400">$0.38</text>

  <!-- Row 4 (alternating bg) -->
  <rect x="740" y="636" width="435" height="32" fill="rgba(246,245,243,0.03)"/>
  <text x="750" y="658" fill="#f6f5f3" font-size="12" font-weight="400">DevOps</text>
  <text x="880" y="658" fill="#f6f5f3" font-size="12" font-weight="400">1,420</text>
  <text x="960" y="658" fill="#f6f5f3" font-size="12" font-weight="400">$587</text>
  <text x="1040" y="658" fill="#218b30" font-size="12" font-weight="400">90.1%</text>
  <text x="1110" y="658" fill="#f6f5f3" font-size="12" font-weight="400">$0.41</text>

  <!-- Row 5 -->
  <rect x="740" y="668" width="435" height="32" fill="transparent"/>
  <text x="750" y="690" fill="#f6f5f3" font-size="12" font-weight="400">QA</text>
  <text x="880" y="690" fill="#f6f5f3" font-size="12" font-weight="400">786</text>
  <text x="960" y="690" fill="#f6f5f3" font-size="12" font-weight="400">$350</text>
  <text x="1040" y="690" fill="#ffb900" font-size="12" font-weight="400">79.8%</text>
  <text x="1110" y="690" fill="#f6f5f3" font-size="12" font-weight="400">$0.45</text>

</svg>